<?xml version="1.0" standalone="no"?><!DOCTYPE svg PUBLIC "-//W3C//DTD SVG 1.1//EN" "http://www.w3.org/Graphics/SVG/1.1/DTD/svg11.dtd"><svg t="1665470906314" class="icon" viewBox="0 0 1024 1024" version="1.1" xmlns="http://www.w3.org/2000/svg" p-id="929" xmlns:xlink="http://www.w3.org/1999/xlink" width="32" height="32"><path d="M512 512m-448 0a448 448 0 1 0 896 0 448 448 0 1 0-896 0Z" fill="#4565ED" p-id="930"></path><path d="M512 512m-448 0a448 448 0 1 0 896 0 448 448 0 1 0-896 0Z" fill="#88C6FF" p-id="931"></path><path d="M885.1 760H138.9C219.1 880.6 356.3 960 512 960s292.9-79.4 373.1-200z" fill="#0285FF" p-id="932"></path><path d="M487 440h50v320h-50z" fill="#D9EDFF" p-id="933"></path><path d="M552 440h-80c-5.5 0-10-4.5-10-10v-20c0-5.5 4.5-10 10-10h80c5.5 0 10 4.5 10 10v20c0 5.5-4.5 10-10 10z" fill="#FFEC16" p-id="934"></path><path d="M667 440h50v320h-50z" fill="#D9EDFF" p-id="935"></path><path d="M732 440h-80c-5.5 0-10-4.5-10-10v-20c0-5.5 4.5-10 10-10h80c5.5 0 10 4.5 10 10v20c0 5.5-4.5 10-10 10z" fill="#FFEC16" p-id="936"></path><path d="M307 440h50v320h-50z" fill="#D9EDFF" p-id="937"></path><path d="M372 440h-80c-5.5 0-10-4.5-10-10v-20c0-5.5 4.5-10 10-10h80c5.5 0 10 4.5 10 10v20c0 5.5-4.5 10-10 10z" fill="#FFEC16" p-id="938"></path><path d="M512 211.8l-282.4 167c-5.3 3.1-3.1 11.2 3.1 11.2h564.8c6.1 0 8.3-8.1 3.1-11.2l-282.4-167c-2-1.1-4.3-1.1-6.2 0z" fill="#0285FF" p-id="939"></path></svg>