<?xml version="1.0" standalone="no"?><!DOCTYPE svg PUBLIC "-//W3C//DTD SVG 1.1//EN" "http://www.w3.org/Graphics/SVG/1.1/DTD/svg11.dtd"><svg t="1665471069899" class="icon" viewBox="0 0 1024 1024" version="1.1" xmlns="http://www.w3.org/2000/svg" p-id="1092" xmlns:xlink="http://www.w3.org/1999/xlink" width="32" height="32"><path d="M887.683 496.878c0 200.271-162.349 362.597-362.62 362.597-200.259 0-362.608-162.326-362.608-362.597 0-200.259 162.349-362.608 362.608-362.608 200.271 0 362.62 162.349 362.62 362.608z" fill="#E79393" p-id="1093"></path><path d="M634.522 280.881h-465.42c-12.614 0-22.842-10.228-22.842-22.842v-85.658c0-12.614 10.228-22.842 22.842-22.842h466.357a22.804 22.804 0 0 1 16.239 6.781 22.864 22.864 0 0 1 6.604 16.306l-0.938 85.658c-0.134 12.526-10.328 22.597-22.842 22.597z m-442.578-45.684h419.982l0.446-39.974H191.944v39.974z" fill="#562F15" p-id="1094"></path><path d="M215.746 669.188h357.857v71.382H215.746z" fill="#E9BD36" p-id="1095"></path><path d="M186.233 781.168l-0.123-398.021c-0.044-12.614 10.138-22.875 22.753-22.92h0.089c12.581 0 22.797 10.172 22.842 22.764l0.357 97.448h-0.234v254.956l337.134-0.726-0.691-476.128c-0.022-12.614 10.194-22.853 22.82-22.875h0.021c12.604 0 22.82 10.206 22.843 22.809l0.736 521.791-428.547 0.902z" fill="#562F15" p-id="1096"></path><path d="M468.783 766.746h-0.033l-132.414-0.356 0.034-11.544h-10.194v-150.37c0-6.302 5.108-11.41 11.41-11.421l130.829-0.123h0.011c6.302 0 11.41 5.097 11.421 11.398l0.357 150.973a11.376 11.376 0 0 1-3.346 8.098 11.435 11.435 0 0 1-8.075 3.345z m-119.765-23.165l108.322 0.29-0.313-128.086-108.009 0.1v127.696z" fill="#562F15" p-id="1097"></path><path d="M859.107 523.334c0 56.247-45.595 101.842-101.853 101.842-56.235 0-101.831-45.595-101.831-101.842s45.596-101.841 101.831-101.841c56.259 0 101.853 45.594 101.853 101.841z" fill="#643C1C" p-id="1098"></path><path d="M827.699 523.334c0 38.903-31.542 70.434-70.444 70.434-38.881 0-70.423-31.53-70.423-70.434 0-38.903 31.542-70.434 70.423-70.434 38.902 0 70.444 31.531 70.444 70.434z" fill="#E9D33D" p-id="1099"></path><path d="M756.34 772.937v-163.71M733.498 609.227h45.685v163.71h-45.685z" fill="#673F1D" p-id="1100"></path><path d="M878.157 785.428h-0.111l-732.377-3.602c-12.614-0.067-22.797-10.34-22.73-22.954 0.067-12.581 10.272-22.73 22.842-22.73h0.111l732.378 3.603c12.625 0.066 22.797 10.339 22.73 22.953-0.067 12.58-10.284 22.73-22.843 22.73z" fill="#562F15" p-id="1101"></path><path d="M357.55 637.065h90.41v96.845h-90.41z" fill="#E9BD36" p-id="1102"></path><path d="M184.326 184.583h435.897v61.868H184.326z" fill="#ECC436" p-id="1103"></path><path d="M207.882 332.745c-12.615 0-22.842-10.228-22.842-22.842v-40.454c0-12.615 10.228-22.842 22.842-22.842 12.614 0 22.842 10.228 22.842 22.842v40.454c0.001 12.614-10.227 22.842-22.842 22.842z" fill="#562F15" p-id="1104"></path><path d="M264.151 347.49h99.009v43.777h-99.009z" fill="#562F15" p-id="1105"></path><path d="M363.16 396.978h-99.009a5.707 5.707 0 0 1-5.711-5.711V347.49a5.706 5.706 0 0 1 5.711-5.71h99.009a5.707 5.707 0 0 1 5.71 5.71v43.777a5.707 5.707 0 0 1-5.71 5.711z m-93.298-11.422h87.587V353.2h-87.587v32.356z" fill="#562F15" p-id="1106"></path><path d="M264.151 475.029h99.009v43.777h-99.009z" fill="#562F15" p-id="1107"></path><path d="M363.16 524.517h-99.009a5.708 5.708 0 0 1-5.711-5.711v-43.777a5.707 5.707 0 0 1 5.711-5.71h99.009a5.707 5.707 0 0 1 5.71 5.71v43.777a5.707 5.707 0 0 1-5.71 5.711z m-93.298-11.421h87.587V480.74h-87.587v32.356z" fill="#562F15" p-id="1108"></path><path d="M424.069 347.49h99.02v43.777h-99.02z" fill="#562F15" p-id="1109"></path><path d="M523.089 396.978h-99.02a5.706 5.706 0 0 1-5.71-5.711V347.49a5.706 5.706 0 0 1 5.71-5.71h99.02a5.697 5.697 0 0 1 5.699 5.71v43.777a5.698 5.698 0 0 1-5.699 5.711z m-93.31-11.422h87.599V353.2h-87.599v32.356z" fill="#562F15" p-id="1110"></path><path d="M422.162 475.029h99.02v43.777h-99.02z" fill="#562F15" p-id="1111"></path><path d="M521.182 524.517h-99.02a5.707 5.707 0 0 1-5.71-5.711v-43.777a5.707 5.707 0 0 1 5.71-5.71h99.02a5.713 5.713 0 0 1 5.71 5.71v43.777a5.715 5.715 0 0 1-5.71 5.711z m-93.31-11.421h87.599V480.74h-87.599v32.356z" fill="#562F15" p-id="1112"></path></svg>